<svg id="SvgjsSvg1017" xmlns="http://www.w3.org/2000/svg" version="1.1" xmlns:xlink="http://www.w3.org/1999/xlink" xmlns:svgjs="http://svgjs.com/svgjs" width="36" height="36"><defs id="SvgjsDefs1018"><clipPath id="SvgjsClipPath1021"><path id="SvgjsPath1020" d="M213 618C213 608.05887 221.05887 600 231 600C240.94113 600 249 608.05887 249 618C249 627.94113 240.94113 636 231 636C221.05887 636 213 627.94113 213 618Z " fill="#980933"></path></clipPath></defs><path id="SvgjsPath1019" d="M213 618C213 608.05887 221.05887 600 231 600C240.94113 600 249 608.05887 249 618C249 627.94113 240.94113 636 231 636C221.05887 636 213 627.94113 213 618Z " fill-opacity="0" fill="#980933" stroke-dasharray="0" stroke-linejoin="miter" stroke-linecap="butt" stroke-opacity="1" stroke="#980933" stroke-miterlimit="50" stroke-width="2" clip-path="url(&quot;#SvgjsClipPath1021&quot;)" transform="matrix(1,0,0,1,-213,-600)"></path><path id="SvgjsPath1022" d="M239.8 612.62C239.18 612.89 238.52 613.08 237.82000000000002 613.16C238.53000000000003 612.73 239.08 612.06 239.34000000000003 611.25C238.67000000000004 611.65 237.93000000000004 611.93 237.15000000000003 612.09C236.52000000000004 611.4200000000001 235.62000000000003 611 234.63000000000002 611C232.41000000000003 611 230.77 613.08 231.27 615.23C228.41 615.09 225.87 613.72 224.17000000000002 611.63C223.27 613.18 223.70000000000002 615.21 225.24 616.23C224.67000000000002 616.21 224.14000000000001 616.0600000000001 223.68 615.8000000000001C223.64000000000001 617.4000000000001 224.78 618.8900000000001 226.44 619.22C225.95 619.36 225.42 619.39 224.88 619.28C225.32 620.65 226.59 621.65 228.1 621.68C226.65 622.81 224.82999999999998 623.3199999999999 223 623.0999999999999C224.53 624.0799999999999 226.34 624.6499999999999 228.28 624.6499999999999C234.68 624.6499999999999 238.3 619.2499999999999 238.08 614.3999999999999C238.75 613.9099999999999 239.34 613.3099999999998 239.8 612.6199999999999Z " fill="#980933" fill-opacity="1" transform="matrix(1,0,0,1,-213,-600)"></path></svg>