<svg id="SvgjsSvg1000" xmlns="http://www.w3.org/2000/svg" version="1.1" xmlns:xlink="http://www.w3.org/1999/xlink" xmlns:svgjs="http://svgjs.com/svgjs" width="36" height="36"><defs id="SvgjsDefs1001"><clipPath id="SvgjsClipPath1010"><path id="SvgjsPath1009" d="M113 618C113 608.05887 121.05887 600 131 600C140.94113 600 149 608.05887 149 618C149 627.94113 140.94113 636 131 636C121.05887 636 113 627.94113 113 618Z " fill="#980933"></path></clipPath></defs><path id="SvgjsPath1007" d="M127.29 609.05C124.02000000000001 609.1999999999999 122.2 611.02 122.05000000000001 614.29C122.01 615.25 122.00000000000001 615.56 122.00000000000001 618C122.00000000000001 620.44 122.01000000000002 620.75 122.05000000000001 621.71C122.20000000000002 624.98 124.02000000000001 626.8000000000001 127.29 626.95C128.25 626.99 128.56 627 131 627C133.44 627 133.75 626.99 134.71 626.95C137.98000000000002 626.8000000000001 139.8 624.98 139.95000000000002 621.71C139.99 620.75 140.00000000000003 620.44 140.00000000000003 618C140.00000000000003 615.56 139.99000000000004 615.25 139.95000000000002 614.29C139.8 611.02 137.98000000000002 609.1999999999999 134.71 609.05C133.75 609.01 133.44 609 131 609C128.56 609 128.25 609.01 127.29 609.05ZM134.64 610.67C137.07999999999998 610.79 138.22 611.9399999999999 138.32999999999998 614.36C138.36999999999998 615.3100000000001 138.38 615.6 138.38 618C138.38 620.4 138.37 620.69 138.32999999999998 621.64C138.20999999999998 624.06 137.07999999999998 625.22 134.64 625.33C133.69 625.37 133.39999999999998 625.38 131 625.38C128.6 625.38 128.31 625.37 127.36 625.33C124.92 625.22 123.78 624.0500000000001 123.67 621.64C123.63 620.6899999999999 123.62 620.4 123.62 618C123.62 615.6 123.63000000000001 615.31 123.67 614.36C123.79 611.94 124.92 610.79 127.36 610.67C128.31 610.63 128.6 610.62 131 610.62C133.4 610.62 133.69 610.63 134.64 610.67ZM126.38 618C126.38 620.55 128.45 622.62 131 622.62C133.55 622.62 135.62 620.55 135.62 618C135.62 615.45 133.55 613.38 131 613.38C128.45 613.38 126.38 615.45 126.38 618ZM128 618C128 616.34 129.34 615 131 615C132.66 615 134 616.34 134 618C134 619.66 132.66 621 131 621C129.34 621 128 619.66 128 618ZM135.8 612.12C136.4 612.12 136.88000000000002 612.6 136.88000000000002 613.2C136.88000000000002 613.7900000000001 136.40000000000003 614.2800000000001 135.8 614.2800000000001C135.21 614.2800000000001 134.72 613.7900000000001 134.72 613.2C134.72 612.6 135.21 612.12 135.8 612.12Z " fill="#980933" fill-opacity="1" transform="matrix(1,0,0,1,-113,-600)"></path><path id="SvgjsPath1008" d="M113 618C113 608.05887 121.05887 600 131 600C140.94113 600 149 608.05887 149 618C149 627.94113 140.94113 636 131 636C121.05887 636 113 627.94113 113 618Z " fill-opacity="0" fill="#980933" stroke-dasharray="0" stroke-linejoin="miter" stroke-linecap="butt" stroke-opacity="1" stroke="#980933" stroke-miterlimit="50" stroke-width="2" clip-path="url(&quot;#SvgjsClipPath1010&quot;)" transform="matrix(1,0,0,1,-113,-600)"></path></svg>