<?xml version="1.0" encoding="UTF-8"?>
<svg width="143px" height="85px" viewBox="0 0 143 85" version="1.1" xmlns="http://www.w3.org/2000/svg" xmlns:xlink="http://www.w3.org/1999/xlink">
    <!-- Generator: Sketch 47.1 (45422) - http://www.bohemiancoding.com/sketch -->
    <title>ladresse_logo</title>
    <desc>Created with Sketch.</desc>
    <defs></defs>
    <g id="Page-1" stroke="none" stroke-width="1" fill="none" fill-rule="evenodd">
        <g id="ladresse_logo" fill-rule="nonzero" fill="#980933">
            <polygon id="Shape" points="0.13 44.9 3.8 44.9 3.8 61.93 12.06 61.93 12.06 65 0.13 65"></polygon>
            <path d="M17.58,44.57 C16.8051529,47.2324155 15.7246238,49.7961553 14.36,52.21 L12.12,52.42 C12.9701031,49.9540521 13.5992473,47.4173962 14,44.84 L17.58,44.57 Z" id="Shape"></path>
            <path d="M29,56.53 L27.42,51.53 C27.03,50.31 26.71,48.94 26.42,47.77 L26.36,47.77 C26.06,48.93 25.76,50.33 25.36,51.53 L23.81,56.53 L29,56.53 Z M23.27,59.3 L21.54,65 L17.76,65 L24.2,44.9 L28.88,44.9 L35.41,65 L31.48,65 L29.66,59.3 L23.27,59.3 Z" id="Shape"></path>
            <path d="M43.38,62.2 C44.043588,62.2786294 44.712031,62.3087093 45.38,62.29 C50.15,62.29 52.99,59.69 52.99,54.6 C52.99,50.15 50.45,47.6 45.86,47.6 C45.018223,47.579786 44.176715,47.6501911 43.35,47.81 L43.38,62.2 Z M39.71,45.2 C41.6458145,44.9054249 43.6019585,44.7649838 45.56,44.78 C49.32,44.78 51.91,45.55 53.76,47.1 C55.61,48.65 56.89,51.1 56.89,54.5 C57.046898,57.4928985 55.906279,60.4082193 53.76,62.5 C51.76,64.32 48.57,65.24 44.66,65.24 C42.989323,65.2548245 41.3193655,65.1646468 39.66,64.97 L39.71,45.2 Z" id="Shape"></path>
            <path d="M65.22,54.05 L67.4,54.05 C69.88,54.05 71.4,52.74 71.4,50.74 C71.4,48.53 69.85,47.52 67.46,47.52 C66.699041,47.4973725 65.937883,47.5577287 65.19,47.7 L65.22,54.05 Z M61.58,45.16 C63.415809,44.8719587 65.271751,44.7315091 67.13,44.74 C70.02,44.74 71.99,45.22 73.33,46.35 C74.475999,47.357406 75.110736,48.8250058 75.06,50.35 C75.027517,52.6191913 73.569483,54.6219846 71.42,55.35 L71.42,55.44 C72.85,55.98 73.72,57.38 74.22,59.32 C74.609281,61.2499342 75.140729,63.1484433 75.81,65 L72,65 C71.417708,63.4615232 70.969375,61.8756305 70.66,60.26 C70.09,57.64 69.14,56.8 67.05,56.74 L65.2,56.74 L65.2,65 L61.56,65 L61.58,45.16 Z" id="Shape"></path>
            <path d="M96.81,61 C98.297245,61.8269302 99.96837,62.2670619 101.67,62.28 C104.03,62.28 105.34,61.18 105.34,59.54 C105.34,57.9 104.34,57.12 101.76,56.2 C98.45,55.01 96.33,53.2 96.33,50.35 C96.33,47.07 99.08,44.56 103.43,44.56 C105.096136,44.5100278 106.750673,44.8525821 108.26,45.56 L107.37,48.56 C106.1385,47.90459 104.765046,47.5612265 103.37,47.56 C101,47.58 100,48.83 100,50 C100,51.55 101.16,52.27 103.85,53.31 C107.34,54.62 109.04,56.38 109.04,59.31 C109.04,62.53 106.59,65.31 101.4,65.31 C99.522026,65.3040793 97.67193,64.8552598 96,64 L96.81,61 Z" id="Shape"></path>
            <path d="M113.79,61 C115.277245,61.8269302 116.94837,62.2670619 118.65,62.28 C121.01,62.28 122.32,61.18 122.32,59.54 C122.32,57.9 121.32,57.12 118.74,56.2 C115.43,55.01 113.31,53.2 113.31,50.35 C113.31,47.07 116.05,44.56 120.41,44.56 C122.076136,44.5100278 123.730673,44.8525821 125.24,45.56 L124.35,48.56 C123.1185,47.90459 121.745046,47.5612265 120.35,47.56 C118,47.58 117,48.83 117,50 C117,51.55 118.16,52.27 120.85,53.31 C124.34,54.62 126.04,56.38 126.04,59.31 C126.04,62.53 123.59,65.31 118.4,65.31 C116.522026,65.3040793 114.67193,64.8552598 113,64 L113.79,61 Z" id="Shape"></path>
            <polygon id="Shape" points="134.52 56.08 141.47 56.08 141.47 53.1 134.52 53.1 134.52 47.91 141.47 47.91 142.54 44.9 130.85 44.9 130.85 65 142.99 65 142.99 61.99 134.52 61.99"></polygon>
            <polygon id="Shape" points="83.72 56.08 90.67 56.08 90.67 53.1 83.72 53.1 83.72 47.91 90.67 47.91 91.74 44.9 80.05 44.9 80.05 65 92.19 65 92.19 61.99 83.72 61.99"></polygon>
            <rect id="Rectangle-path" x="82.25" y="39.67" width="60.74" height="1"></rect>
            <path d="M89.85,28 C90.550774,25.967746 91.095685,23.8850513 91.48,21.77 C91.74,20.3833333 91.95,18.8966667 92.11,17.31 L97.2,17.31 L97.14,17.62 C96.23,22.67 93.66,26.29 89.8,28.12 L89.8,27.99 L89.85,28 Z M82.2,39.45 C84.487637,37.6212253 86.364956,35.3316448 87.71,32.73 C87.8,32.56 87.89,32.38 87.98,32.2 C95.639812,29.6517673 100.85316,22.5415627 100.98,14.47 L92.31,14.47 C92.403333,12.83 92.436667,11.0866667 92.41,9.24 L50.69,9.24 C50.49275,15.0884033 51.207996,20.9318286 52.81,26.56 C53.218602,27.9218527 53.709505,29.2576432 54.28,30.56 C55.72622,34.1688618 58.107917,37.3271992 61.18,39.71 L0.13,39.71 L0.13,40.56 L74.33,40.56 L74.33,39.71 L62.68,39.71 L62.68,17.26 L74.33,17.26 L81.54,14.36 L82.26,14.36 L82.2,39.45 Z" id="Shape"></path>
            <rect id="Rectangle-path" x="50.68" y="7.66" width="41.76" height="1"></rect>
            <path d="M76.53,5.13 C76.616086,5.4014582 76.656634,5.6852961 76.65,5.97 C76.660332,6.2941531 76.605939,6.6171136 76.49,6.92 L77.29,6.92 C77.381507,6.6115804 77.428647,6.2917054 77.43,5.97 C77.442392,5.3386037 77.272247,4.7170537 76.94,4.18 C76.832178,3.9954736 76.741788,3.8013008 76.67,3.6 C76.582808,3.3287955 76.542233,3.04477 76.55,2.76 C76.537388,2.3152438 76.648145,1.8756777 76.87,1.49 L76.95,1.34 C77.03,1.19 77.11,1.04 77.19,0.87 C77.27,0.7 77.19,0.76 77.19,0.71 L76.35,0.71 L76.22,0.96 C75.572127,2.0653992 75.572127,3.4346008 76.22,4.54 C76.328243,4.7243055 76.418653,4.9185189 76.49,5.12" id="Shape"></path>
            <path d="M74,5.13 C74.086086,5.4014582 74.126634,5.6852961 74.12,5.97 C74.130332,6.2941531 74.075939,6.6171136 73.96,6.92 L74.76,6.92 C74.851507,6.6115804 74.898647,6.2917054 74.9,5.97 C74.912963,5.3385327 74.742775,4.7168238 74.41,4.18 C74.302127,3.9955006 74.211734,3.8013229 74.14,3.6 C74.052808,3.3287955 74.012233,3.04477 74.02,2.76 C74.00435,2.3161906 74.11163,1.8766864 74.33,1.49 L74.41,1.34 C74.49,1.19 74.57,1.04 74.65,0.87 C74.73,0.7 74.65,0.76 74.65,0.71 L73.81,0.71 L73.68,0.96 C73.029999,2.0648204 73.029999,3.4351796 73.68,4.54 C73.787822,4.7245264 73.878212,4.9186992 73.95,5.12" id="Shape"></path>
            <path d="M71.49,5.13 C71.576086,5.4014582 71.616634,5.6852961 71.61,5.97 C71.620332,6.2941531 71.565939,6.6171136 71.45,6.92 L72.25,6.92 C72.341507,6.6115804 72.388647,6.2917054 72.39,5.97 C72.402392,5.3386037 72.232247,4.7170537 71.9,4.18 C71.792178,3.9954736 71.701788,3.8013008 71.63,3.6 C71.542808,3.3287955 71.502233,3.04477 71.51,2.76 C71.497388,2.3152438 71.608145,1.8756777 71.83,1.49 L71.91,1.34 C71.99,1.19 72.07,1.04 72.15,0.87 C72.23,0.7 72.15,0.76 72.15,0.71 L71.31,0.71 L71.18,0.96 C70.532127,2.0653992 70.532127,3.4346008 71.18,4.54 C71.288243,4.7243055 71.378653,4.9185189 71.45,5.12" id="Shape"></path>
            <path d="M69,5.13 C69.086086,5.4014582 69.126634,5.6852961 69.12,5.97 C69.130332,6.2941531 69.075939,6.6171136 68.96,6.92 L69.76,6.92 C69.851507,6.6115804 69.898647,6.2917054 69.9,5.97 C69.912392,5.3386037 69.742247,4.7170537 69.41,4.18 C69.302127,3.9955006 69.211734,3.8013229 69.14,3.6 C69.053368,3.3286668 69.012806,3.0447368 69.02,2.76 C69.007388,2.3152438 69.118145,1.8756777 69.34,1.49 L69.42,1.34 C69.5,1.19 69.58,1.04 69.66,0.87 C69.74,0.7 69.66,0.76 69.66,0.71 L68.82,0.71 L68.69,0.96 C68.039999,2.0648204 68.039999,3.4351796 68.69,4.54 C68.797822,4.7245264 68.888212,4.9186992 68.96,5.12" id="Shape"></path>
            <path d="M66.45,5.13 C66.536086,5.4014582 66.576634,5.6852961 66.57,5.97 C66.580332,6.2941531 66.525939,6.6171136 66.41,6.92 L67.21,6.92 C67.301507,6.6115804 67.348647,6.2917054 67.35,5.97 C67.362392,5.3386037 67.192247,4.7170537 66.86,4.18 C66.752178,3.9954736 66.661788,3.8013008 66.59,3.6 C66.503368,3.3286668 66.462806,3.0447368 66.47,2.76 C66.457388,2.3152438 66.568145,1.8756777 66.79,1.49 L66.87,1.34 C66.95,1.19 67.03,1.04 67.11,0.87 C67.19,0.7 67.11,0.76 67.11,0.71 L66.27,0.71 L66.14,0.96 C65.489999,2.0648204 65.489999,3.4351796 66.14,4.54 C66.247822,4.7245264 66.338212,4.9186992 66.41,5.12" id="Shape"></path>
            <polygon id="Shape" points="75.1 39.67 75.1 40 76.93 40.53 77.03 40.53 80.75 41.6 80.75 15.51 75.1 17.78"></polygon>
            <path d="M30.82,82.34 L30.33,83.93 L29.27,83.93 L31.07,78.31 L32.38,78.31 L34.21,83.93 L33.11,83.93 L32.6,82.34 L30.82,82.34 Z M32.43,81.56 L32,80.18 C31.89,79.84 31.8,79.45 31.72,79.13 L31.72,79.13 C31.64,79.46 31.55,79.85 31.45,80.18 L31,81.57 L32.43,81.56 Z" id="Shape"></path>
            <path d="M41,81.64 C41,80.91 40.93,80.04 40.93,79.28 L40.93,79.28 C40.75,79.96 40.51,80.72 40.26,81.43 L39.44,83.87 L38.6,83.87 L37.85,81.47 C37.63,80.75 37.43,79.98 37.28,79.28 L37.28,79.28 C37.28,80.01 37.22,80.91 37.18,81.68 L37,83.94 L36,83.94 L36.38,78.32 L37.73,78.32 L38.46,80.58 C38.66,81.24 38.84,81.91 38.98,82.58 L38.98,82.58 C39.13,81.97 39.32,81.28 39.54,80.58 L40.32,78.33 L41.66,78.33 L41.99,83.95 L40.99,83.95 L41,81.64 Z" id="Shape"></path>
            <polygon id="Shape" points="47.52 81.44 45.4 81.44 45.4 83.09 47.77 83.09 47.77 83.94 44.38 83.94 44.38 78.31 47.65 78.31 47.65 79.16 45.4 79.16 45.4 80.61 47.52 80.61"></polygon>
            <path d="M49.93,78.39 C50.442573,78.308162 50.960939,78.268031 51.48,78.27 C52.094984,78.209278 52.711563,78.368739 53.22,78.72 C53.542978,79.004462 53.719513,79.420055 53.7,79.85 C53.698218,80.484127 53.297864,81.048626 52.7,81.26 L52.7,81.26 C53.125911,81.466989 53.421731,81.871402 53.49,82.34 C53.598259,82.873345 53.745317,83.398073 53.93,83.91 L52.87,83.91 C52.708904,83.478049 52.585118,83.033088 52.5,82.58 C52.34,81.85 52.07,81.58 51.5,81.58 L50.98,81.58 L50.98,83.89 L49.98,83.89 L49.93,78.39 Z M50.93,80.88 L51.54,80.88 C52.23,80.88 52.67,80.51 52.67,79.95 C52.67,79.39 52.24,79.05 51.57,79.05 C51.360627,79.027042 51.149373,79.027042 50.94,79.05 L50.93,80.88 Z" id="Shape"></path>
            <rect id="Rectangle-path" x="55.93" y="78.31" width="1.03" height="5.62"></rect>
            <path d="M63.41,83.77 C62.960515,83.941694 62.480747,84.019954 62,84 C61.227485,84.066359 60.464659,83.791061 59.912562,83.246659 C59.360466,82.702258 59.074489,81.943371 59.13,81.17 C59.079686,80.359971 59.379564,79.567325 59.953444,78.993444 C60.527325,78.419564 61.319971,78.119686 62.13,78.17 C62.599389,78.153045 63.066853,78.238349 63.5,78.42 L63.28,79.24 C62.932691,79.090749 62.557998,79.015811 62.18,79.02 C61.625189,78.977955 61.08047,79.185155 60.693858,79.585298 C60.307247,79.985441 60.118901,80.536963 60.18,81.09 C60.133834,81.633276 60.32967,82.169252 60.715209,82.554791 C61.100748,82.94033 61.636724,83.136166 62.18,83.09 C62.56364,83.095836 62.944532,83.024418 63.3,82.88 L63.41,83.77 Z" id="Shape"></path>
            <path d="M66.73,82.34 L66.25,83.93 L65.19,83.93 L66.99,78.31 L68.3,78.31 L70.13,83.93 L69,83.93 L68.49,82.34 L66.73,82.34 Z M68.34,81.56 L67.9,80.18 C67.79,79.84 67.7,79.45 67.62,79.13 L67.62,79.13 C67.54,79.46 67.45,79.85 67.35,80.18 L66.92,81.56 L68.34,81.56 Z" id="Shape"></path>
            <path d="M72.16,83.94 L72.16,78.32 L73.33,78.32 L74.78,80.73 C75.156332,81.336293 75.490456,81.967787 75.78,82.62 L75.78,82.62 C75.71,81.87 75.69,81.14 75.69,80.28 L75.69,78.28 L76.69,78.28 L76.69,83.9 L75.63,83.9 L74.16,81.43 C73.790581,80.802581 73.456721,80.154892 73.16,79.49 L73.16,79.49 C73.16,80.22 73.16,80.96 73.16,81.89 L73.16,83.89 L72.16,83.94 Z" id="Shape"></path>
            <path d="M82,78.39 C82.492217,78.306627 82.990784,78.266474 83.49,78.27 C84.051214,78.217035 84.614792,78.343052 85.1,78.63 C85.468498,78.849835 85.690111,79.251029 85.68,79.68 C85.665424,80.244632 85.290592,80.736347 84.75,80.9 L84.75,80.9 C85.408272,81.03733 85.879966,81.617555 85.88,82.29 C85.888044,82.739151 85.688873,83.167 85.34,83.45 C84.728455,83.869427 83.987514,84.057321 83.25,83.98 C82.828945,83.983217 82.408107,83.959837 81.99,83.91 L82,78.39 Z M83,80.61 L83.53,80.61 C84.24,80.61 84.64,80.28 84.64,79.8 C84.64,79.32 84.24,79.03 83.59,79.03 C83.397159,79.010483 83.202841,79.010483 83.01,79.03 L83,80.61 Z M83,83.2 C83.179838,83.21081 83.360162,83.21081 83.54,83.2 C84.2,83.2 84.78,82.95 84.78,82.26 C84.78,81.57 84.21,81.34 83.5,81.34 L83,81.34 L83,83.2 Z" id="Shape"></path>
            <rect id="Rectangle-path" x="88.09" y="78.31" width="1.03" height="5.62"></rect>
            <path d="M91.52,82.82 C91.935967,83.052161 92.403649,83.175959 92.88,83.18 C93.54,83.18 93.88,82.87 93.88,82.41 C93.88,81.95 93.6,81.73 92.88,81.47 C91.95,81.14 91.36,80.64 91.36,79.83 C91.36,79.02 92.13,78.21 93.36,78.21 C93.825635,78.19726 94.28784,78.293125 94.71,78.49 L94.46,79.32 C94.114412,79.139635 93.729811,79.046919 93.34,79.05 C92.69,79.05 92.4,79.4 92.4,79.73 C92.4,80.06 92.73,80.36 93.48,80.66 C94.48,81.03 94.93,81.52 94.93,82.33 C94.93,83.14 94.25,84.02 92.79,84.02 C92.262852,84.024555 91.742071,83.904638 91.27,83.67 L91.52,82.82 Z" id="Shape"></path>
            <polygon id="Shape" points="98.2 79.17 96.6 79.17 96.6 78.31 100.85 78.31 100.85 79.17 99.23 79.17 99.23 83.94 98.2 83.94"></polygon>
            <path d="M102.76,78.39 C103.272568,78.308118 103.790937,78.267987 104.31,78.27 C104.924984,78.209278 105.541563,78.368739 106.05,78.72 C106.371779,79.005325 106.548059,79.420318 106.53,79.85 C106.528218,80.484127 106.127864,81.048626 105.53,81.26 L105.53,81.26 C105.955911,81.466989 106.251731,81.871402 106.32,82.34 C106.428771,82.873221 106.575819,83.397913 106.76,83.91 L105.7,83.91 C105.535781,83.478267 105.408654,83.033323 105.32,82.58 C105.16,81.85 104.9,81.58 104.32,81.58 L103.8,81.58 L103.8,83.89 L102.8,83.89 L102.76,78.39 Z M103.76,80.88 L104.37,80.88 C105.06,80.88 105.5,80.51 105.5,79.95 C105.5,79.39 105.07,79.05 104.4,79.05 C104.190627,79.027042 103.979373,79.027042 103.77,79.05 L103.76,80.88 Z" id="Shape"></path>
            <path d="M113.75,81.07 C113.849356,81.839284 113.607972,82.613613 113.089074,83.190167 C112.570176,83.76672 111.825463,84.088054 111.05,84.07 C110.314671,84.070858 109.613364,83.760306 109.119773,83.215258 C108.626181,82.670211 108.386467,81.941644 108.46,81.21 C108.386794,80.456172 108.634761,79.706409 109.142994,79.144879 C109.651226,78.583349 110.372629,78.262085 111.13,78.26 C111.866883,78.253749 112.571806,78.560484 113.069495,79.103937 C113.567183,79.64739 113.810883,80.376508 113.74,81.11 M109.54,81.19 C109.54,82.33 110.11,83.24 111.1,83.24 C112.09,83.24 112.65,82.32 112.65,81.15 C112.65,79.98 112.13,79.09 111.1,79.09 C110.07,79.09 109.54,80.03 109.54,81.19" id="Shape"></path>
        </g>
    </g>
</svg>