<svg id="SvgjsSvg1000" xmlns="http://www.w3.org/2000/svg" version="1.1" xmlns:xlink="http://www.w3.org/1999/xlink" xmlns:svgjs="http://svgjs.com/svgjs" width="92" height="108" viewBox="0 0 92 108"><title>Path 2</title><desc>Created with Avocode.</desc><defs id="SvgjsDefs1001"></defs><path id="SvgjsPath1007" d="M1112 1386C1112.05 1374.99 1113 1369 1113 1369L1167 1369C1167 1369 1167.97 1375 1168 1386C1168.07 1415 1156.5 1434 1140 1434C1123.5 1434 1111.87 1415 1112 1386Z " fill="#980933" fill-opacity="1" transform="matrix(1,0,0,1,-1094,-1369)"></path><path id="SvgjsPath1008" d="M1140 1403.29L1133 1407L1134.29 1399.15L1129 1393.7900000000002L1136.47 1392.4400000000003L1140 1386.0000000000002L1143.53 1392.4400000000003L1151 1393.7900000000002L1145.71 1399.15L1147 1407Z " fill="#ffffff" fill-opacity="1" transform="matrix(1,0,0,1,-1094,-1369)"></path><path id="SvgjsPath1009" d="M1148 1465L1132 1465C1132 1465 1134 1456 1134 1448C1134 1440 1133.5 1436 1133.5 1436C1142.5 1436 1144 1432 1144 1432L1147 1432C1147 1432 1146 1440 1146 1448C1146 1456 1148 1465 1148 1465Z " fill="#980933" fill-opacity="1" transform="matrix(1,0,0,1,-1094,-1369)"></path><path id="SvgjsPath1010" d="M1119 1470L1124 1465L1156 1465L1161 1470C1161 1470 1168 1470 1168 1477L1112 1477C1112 1470 1119 1470 1119 1470Z " fill="#980933" fill-opacity="1" transform="matrix(1,0,0,1,-1094,-1369)"></path><path id="SvgjsPath1011" d="M1182 1378C1182 1408.5 1157 1412 1157 1421C1157 1425 1160 1426 1162 1426C1164 1426 1166 1425 1166 1423C1166 1421 1164.5 1420 1163 1420C1161.5 1420 1161 1421.01 1161 1421.01C1161 1415.5 1186 1410 1186 1378C1186 1374.57 1186 1374 1186 1374C1186 1374 1163.55 1374 1163 1374L1163 1378C1163.55 1378 1182 1378 1182 1378Z " fill="#980933" fill-opacity="1" transform="matrix(1,0,0,1,-1094,-1369)"></path><path id="SvgjsPath1012" d="M1098 1378C1098 1408.5 1123 1412 1123 1421C1123 1425 1120 1426 1118 1426C1116 1426 1114 1425 1114 1423C1114 1421 1115.5 1420 1117 1420C1118.5 1420 1119 1421.01 1119 1421.01C1119 1415.5 1094 1410 1094 1378C1094 1374.57 1094 1374 1094 1374C1094 1374 1116.45 1374 1117 1374L1117 1378C1116.45 1378 1098 1378 1098 1378Z " fill="#980933" fill-opacity="1" transform="matrix(1,0,0,1,-1094,-1369)"></path></svg>