<svg id="SvgjsSvg1011" xmlns="http://www.w3.org/2000/svg" version="1.1" xmlns:xlink="http://www.w3.org/1999/xlink" xmlns:svgjs="http://svgjs.com/svgjs" width="36" height="36"><defs id="SvgjsDefs1012"><clipPath id="SvgjsClipPath1015"><path id="SvgjsPath1014" d="M163 618C163 608.05887 171.05887 600 181 600C190.94113 600 199 608.05887 199 618C199 627.94113 190.94113 636 181 636C171.05887 636 163 627.94113 163 618Z " fill="#980933"></path></clipPath></defs><path id="SvgjsPath1013" d="M163 618C163 608.05887 171.05887 600 181 600C190.94113 600 199 608.05887 199 618C199 627.94113 190.94113 636 181 636C171.05887 636 163 627.94113 163 618Z " fill-opacity="0" fill="#980933" stroke-dasharray="0" stroke-linejoin="miter" stroke-linecap="butt" stroke-opacity="1" stroke="#980933" stroke-miterlimit="50" stroke-width="2" clip-path="url(&quot;#SvgjsClipPath1015&quot;)" transform="matrix(1,0,0,1,-163,-600)"></path><path id="SvgjsPath1016" d="M179 615.33L177 615.33L177 618L179 618L179 626L182.33 626L182.33 618L184.76000000000002 618L185.00000000000003 615.33L182.33000000000004 615.33L182.33000000000004 614.22C182.33000000000004 613.59 182.46000000000004 613.33 183.08000000000004 613.33L185.00000000000003 613.33L185.00000000000003 610L182.46000000000004 610C180.06000000000003 610 179.00000000000003 611.06 179.00000000000003 613.08L179.00000000000003 615.33Z " fill="#980933" fill-opacity="1" transform="matrix(1,0,0,1,-163,-600)"></path></svg>